<svg width="143" height="143" viewBox="0 0 143 143" fill="none" xmlns="http://www.w3.org/2000/svg">
<g clip-path="url(#clip0_81_2361)">
<path d="M143 71.5C143.009 79.3184 141.733 87.0852 139.224 94.49C139.08 94.9131 138.933 95.3347 138.782 95.755C136.125 103.103 132.283 109.967 127.408 116.073C125.952 117.899 124.41 119.649 122.781 121.324C121.152 123.001 119.442 124.597 117.651 126.111C107.661 134.583 95.5256 140.132 82.5825 142.145H82.5804C80.9304 142.401 79.2642 142.601 77.5817 142.744C75.5785 142.913 73.5512 142.999 71.5 143C61.9611 143.012 52.5168 141.11 43.7267 137.406C34.9365 133.701 26.9794 128.27 20.3268 121.434C19.8593 120.956 19.3988 120.47 18.9454 119.978C17.8158 118.753 16.7292 117.491 15.6856 116.19C15.0996 115.458 14.5278 114.714 13.97 113.96C10.5344 109.319 7.67601 104.277 5.45771 98.945C4.51171 96.6743 3.68558 94.3554 2.98272 91.9981C2.93195 91.831 2.88329 91.6639 2.83464 91.4967C2.72887 91.1371 2.62663 90.7754 2.52791 90.4115C0.845148 84.2487 -0.00503352 77.8884 2.24177e-05 71.5C2.24177e-05 32.0121 32.0121 0 71.5 0C110.988 0 143 32.0121 143 71.5Z" fill="#EBF3FF"/>
<path d="M30.3237 42.7374C30.213 43.4095 30.251 44.0976 30.435 44.7535C30.6191 45.4093 30.9447 46.0168 31.3889 46.5331C31.8331 47.0495 32.3852 47.4622 33.0061 47.7421C33.6271 48.0221 34.3019 48.1624 34.983 48.1534L46.3964 81.3634L53.679 76.3584L39.6204 43.0967C39.5294 41.9535 39.0221 40.8834 38.1948 40.0893C37.3675 39.2951 36.2776 38.832 35.1316 38.7877C33.9857 38.7434 32.8633 39.121 31.9772 39.8489C31.091 40.5769 30.5027 41.6046 30.3237 42.7374Z" fill="#A0616A"/>
<path d="M89.894 53.9744C84.8256 59.741 72.3279 69.9033 62.0323 76.901C59.8069 78.4135 57.6831 79.7758 55.7602 80.916C54.4613 81.686 53.2535 82.3523 52.1661 82.896C51.4364 83.2595 50.6394 83.4684 49.8251 83.5097C49.0109 83.5509 48.1969 83.4236 47.4341 83.1356C46.6714 82.8477 45.9763 82.4053 45.3924 81.8363C44.8085 81.2672 44.3484 80.5838 44.041 79.8287L36.9121 62.5819L39.3786 60.9467L45.4604 56.9127L46.8417 55.9988L52.5448 69.5817L58.5588 64.7544L62.2925 61.7569L79.3129 48.0979L80.7809 47.6621L84.2058 51.0044L86.6279 53.3694L88.9061 53.765C89.2467 53.8242 89.5767 53.894 89.894 53.9744Z" fill="#5197FF"/>
<path d="M135.368 101.361C135.721 101.809 136.087 102.256 136.453 102.704C135.192 105.293 133.775 107.802 132.21 110.218C132.093 110.135 131.977 110.053 131.861 109.97C131.842 109.96 131.824 109.949 131.808 109.937C131.374 109.628 130.938 109.323 130.505 109.014V109.012C130.147 107.795 129.947 106.536 129.91 105.268C130.134 105.217 130.336 105.098 130.49 104.928C130.644 104.757 130.742 104.544 130.77 104.316C130.799 104.088 130.756 103.857 130.649 103.655C130.542 103.452 130.375 103.287 130.17 103.182C130.113 103.083 130.073 103.011 130.016 102.909C130.018 102.884 130.022 102.856 130.024 102.831C130.356 100.189 133.724 99.2666 135.368 101.361Z" fill="white"/>
<path d="M139.165 92.307C139.418 93.0051 139.65 93.7109 139.858 94.4245C139.715 94.8476 139.567 95.2692 139.416 95.6895C139.359 95.4674 139.3 95.2453 139.239 95.0231C138.895 93.7881 138.481 92.5734 138.001 91.3847C137.608 90.4095 137.172 89.4548 136.694 88.5205C134.094 83.4448 130.327 79.0586 125.702 75.7224C123.791 75.2803 122.061 74.263 120.746 72.8074C120.272 72.2844 119.875 71.6959 119.568 71.0601C119.762 71.0326 119.957 70.9945 120.147 70.9543C120.206 70.9416 120.268 70.9268 120.327 70.9141L120.35 70.9099C120.558 70.8616 120.748 70.7543 120.897 70.6007C121.045 70.4471 121.146 70.2539 121.188 70.0443C121.229 69.8347 121.209 69.6176 121.13 69.4192C121.051 69.2207 120.916 69.0493 120.742 68.9257C120.634 68.8474 120.524 68.7712 120.416 68.6951C120.251 68.5745 120.084 68.4603 119.917 68.3418C119.899 68.3308 119.882 68.3188 119.866 68.3059C119.676 68.1705 119.485 68.0393 119.297 67.9018C119.443 67.4305 119.696 66.9991 120.035 66.641C121.218 65.4205 123.329 65.448 124.708 66.4422C126.089 67.4364 126.783 69.1774 126.872 70.8739C126.95 72.3272 126.637 73.7657 126.225 75.1682C126.328 75.2443 126.436 75.3162 126.54 75.3945C128.444 76.806 130.206 78.4008 131.799 80.1562C130.879 77.9732 130.544 75.1259 130.783 73.1649C131.056 70.931 132.141 68.8093 133.03 66.696C134.094 64.1576 137.724 64.1237 138.748 66.6791C138.758 66.7045 138.769 66.7278 138.777 66.7532C138.606 66.9245 138.441 67.1022 138.282 67.2862C138.083 67.5181 137.959 67.8048 137.925 68.1086C137.892 68.4125 137.951 68.7194 138.094 68.9892C138.238 69.259 138.46 69.479 138.731 69.6205C139.002 69.7621 139.309 69.8185 139.613 69.7824L139.645 69.7782C139.777 70.5323 139.852 71.2953 139.869 72.0607C139.895 74.202 139.479 76.3257 138.646 78.2987C137.813 80.2716 136.582 82.0513 135.029 83.526C134.927 83.6212 134.828 83.7143 134.724 83.8053C135.704 85.1988 136.584 86.66 137.358 88.1778C138.045 89.5156 138.648 90.8947 139.165 92.307Z" fill="white"/>
<path d="M98.404 72.4629L97.7651 116.338L46.1582 114.857L54.3997 96.665C54.3405 96.0811 58.017 91.9836 57.9959 91.3765C57.9324 89.5975 59.2609 87.9496 59.4767 86.0881C59.9167 82.2486 57.3972 67.7498 58.5586 64.7544C59.0533 63.4168 59.6872 62.1349 60.4497 60.9298C61.1097 59.9313 61.7867 59.2587 62.434 59.0154L64.342 54.5688L66.0343 52.0304L79.3126 48.0979L80.7807 47.6621L84.2055 51.0044L86.6276 53.3694L88.9059 53.765C89.2465 53.8242 89.5765 53.894 89.8938 53.9744C91.422 54.3268 92.8464 55.0325 94.0526 56.0348C98.0295 59.4131 98.4928 65.7677 98.404 72.4629Z" fill="#5197FF"/>
<path d="M128.042 116.008C126.587 117.833 125.045 119.584 123.416 121.258L117.836 121.262L87.8245 121.296L82.4219 121.303L78.8299 121.307L73.4865 121.311L69.3763 121.315L61.7842 121.324L57.3059 121.33L47.8755 121.339L43.374 121.345L30.8995 121.358L23.0642 121.366L20.9615 121.368C20.494 120.89 20.0335 120.405 19.5801 119.913C18.4505 118.688 17.3639 117.425 16.3203 116.124L20.6738 116.12L23.6395 116.118L30.5061 116.109L43.7569 116.097L48.2351 116.092L50.0459 116.09H50.0522L51.4738 116.088L52.1105 116.086L53.7415 116.084H54.4311L59.2669 116.08L69.6978 116.067L74.2882 116.063L78.684 116.059L82.8047 116.054L88.7172 116.048L120.296 116.016L128.042 116.008Z" fill="#CCCCCC"/>
<path d="M56.6422 50.1287L56.6307 50.1298C56.0205 50.1866 55.4126 49.9986 54.941 49.6073C54.4693 49.2159 54.1724 48.6532 54.1156 48.0429L52.9127 35.2027C52.6949 32.9024 52.9419 30.5818 53.6389 28.3789C55.0052 24.0795 57.9779 20.4732 61.9375 18.3115C63.9821 17.1983 66.2309 16.5106 68.5483 16.2898C78.0294 15.3865 81.4942 17.3611 87.3508 31.8212C93.2075 46.2813 88.5557 44.681 88.5557 44.681C88.585 44.9905 88.5517 45.3027 88.4578 45.599C88.2735 46.1771 87.8729 46.6616 87.3397 46.9514C87.0662 47.0997 86.7656 47.1916 86.4558 47.2214C75.2471 50.0705 63.9372 53.0696 56.6403 50.1289L56.6422 50.1287Z" fill="#2F2E41"/>
<path d="M77.5048 28.4565C78.9118 30.5383 79.6704 32.9903 79.6846 35.5029C79.6989 38.0155 78.9682 40.476 77.5849 42.5736C76.2016 44.6713 74.2278 46.3119 71.9126 47.2883C69.5974 48.2648 67.0448 48.5333 64.5772 48.0598C62.9437 47.7518 61.3875 47.1226 59.9989 46.2088C58.6103 45.295 57.4168 44.1148 56.4876 42.7364C55.0836 40.6554 54.3271 38.2051 54.3137 35.6948C54.3002 33.1844 55.0303 30.7262 56.4119 28.6301C57.7936 26.5341 59.7649 24.8941 62.0773 23.9168C64.3897 22.9396 66.9397 22.6688 69.4057 23.1388C71.0405 23.4451 72.5983 24.0728 73.9886 24.9858C75.3789 25.8987 76.5741 27.0786 77.5049 28.457L77.5048 28.4565Z" fill="#9E616A"/>
<path d="M48.9385 36.6295C48.7664 34.8103 48.9618 32.975 49.5131 31.2328C49.6409 26.9709 50.8774 23.1106 56.0755 23.2726C57.6824 22.3985 59.4486 21.8566 61.2691 21.679L63.8379 21.4253C63.8667 21.4224 63.8956 21.4197 63.9245 21.417C65.7042 21.2513 67.499 21.4379 69.2066 21.9659C70.9142 22.4939 72.5011 23.3531 73.8766 24.4944C75.2522 25.6357 76.3894 27.0368 77.2235 28.6176C78.0576 30.1984 78.5721 31.928 78.7378 33.7077L78.7619 33.9649L73.3272 34.4962L70.9882 29.4908L71.1036 34.7146L68.2967 34.9901L67.1172 32.4648L67.1748 35.0986C63.0072 38.7691 56.6875 38.9615 48.9651 36.887L48.9385 36.6295Z" fill="#2F2E41"/>
<path d="M66.3229 48.8131C66.2767 49.2362 66.3501 49.6638 66.5348 50.0472C66.6279 50.2435 66.748 50.4259 66.8917 50.5889C67.0146 50.7278 67.1536 50.8516 67.3056 50.9579C67.7558 51.2713 68.303 51.4141 68.8489 51.3606C68.883 51.3571 68.9169 51.3529 68.9508 51.3481C68.9847 51.3433 69.0185 51.3378 69.0522 51.3314C69.0863 51.3253 69.1201 51.3183 69.1537 51.3104C69.1873 51.3024 69.221 51.2938 69.2548 51.2845L71.1516 50.753L73.2773 44.8259L73.7646 50.0269L82.3896 47.6256L80.3219 25.5547L65.6211 27.0032L66.0242 27.3914C67.3638 28.6953 68.3177 30.3435 68.7809 32.1546C69.2407 33.9898 69.3826 35.8903 69.2005 37.7735C69.0304 39.6777 68.6778 41.5611 68.1477 43.3979C67.6862 45.0244 67.1314 46.6229 66.486 48.1856C66.4026 48.3861 66.3477 48.5973 66.3229 48.8131Z" fill="#2F2E41"/>
<path d="M68.283 118.4C68.0303 118.4 67.7807 118.344 67.5525 118.235L26.8271 119.274C26.5146 119.126 26.2543 118.887 26.0807 118.588C25.9071 118.289 25.8282 117.944 25.8546 117.599C25.8809 117.255 26.0113 116.926 26.2283 116.657C26.4454 116.387 26.739 116.19 27.0704 116.092L53.7141 108.147C53.99 108.065 54.2822 108.054 54.5636 108.115L95.7768 113.138C96.1415 113.217 96.4704 113.413 96.7132 113.696C96.9561 113.979 97.0996 114.334 97.1218 114.707C97.144 115.079 97.0437 115.449 96.8362 115.759C96.6287 116.069 96.3255 116.303 95.9727 116.424L68.8411 118.306C68.6616 118.368 68.473 118.4 68.283 118.4Z" fill="#3F3D56"/>
<path d="M69.7807 115.565C69.5968 115.565 69.4159 115.518 69.2554 115.429L36.1805 116.974C35.9927 116.869 35.8409 116.709 35.745 116.516C35.6491 116.323 35.6135 116.106 35.6428 115.893C35.6721 115.68 35.7649 115.48 35.9093 115.32C36.0536 115.16 36.2427 115.048 36.452 114.997L48.4258 112.091C48.6127 112.045 48.8083 112.051 48.9922 112.107L79.74 112.07C79.9589 112.137 80.1507 112.273 80.2871 112.456C80.4236 112.64 80.4976 112.863 80.4984 113.092C80.4992 113.321 80.4267 113.544 80.2916 113.729C80.1564 113.913 79.9656 114.05 79.7472 114.119L70.1006 115.517C69.997 115.549 69.8892 115.565 69.7807 115.565Z" fill="#2F2E41"/>
<path d="M66.2996 113.802C66.8721 114.171 67.5186 114.41 68.1934 114.502C68.8683 114.595 69.5552 114.538 70.2057 114.336C70.8563 114.134 71.4546 113.792 71.9586 113.334C72.4626 112.875 72.86 112.312 73.1228 111.684L108.131 114.434L106.439 105.761L70.3301 105.417C69.2451 105.045 68.0616 105.085 67.0037 105.527C65.9458 105.97 65.0871 106.786 64.5903 107.819C64.0935 108.853 63.9931 110.033 64.3082 111.135C64.6232 112.238 65.3318 113.187 66.2996 113.802Z" fill="#A0616A"/>
<path d="M86.9776 57.3184C86.9776 57.3184 92.2661 53.0877 98.6122 60.7031C102.892 65.8388 111.148 96.8855 111.832 109.751C111.876 110.565 111.75 111.379 111.464 112.143C111.178 112.906 110.737 113.602 110.17 114.187C109.602 114.772 108.92 115.234 108.165 115.543C107.411 115.852 106.601 116.002 105.786 115.983L87.1257 115.658L85.0391 103.928L99.7713 104.103L86.9776 57.3184Z" fill="#5197FF"/>
<path d="M66.0176 118.405C65.3774 118.405 64.7438 118.276 64.1539 118.028L26.4065 118.889C25.4103 118.474 24.5834 117.734 24.0593 116.791C23.5353 115.847 23.3449 114.754 23.5188 113.689L22.1162 80.5385C22.3022 79.3544 22.9255 78.2831 23.8628 77.5361C24.8002 76.7891 25.9837 76.4207 27.1794 76.5037L62.2235 77.9572C62.8962 78.0013 63.5521 78.1863 64.1487 78.5002C64.7453 78.8141 65.2692 79.2499 65.6865 79.7793C66.1039 80.3088 66.4052 80.92 66.5711 81.5734C66.737 82.2268 66.7637 82.9078 66.6494 83.5722L70.7553 114.408C70.5622 115.525 69.9812 116.538 69.1147 117.27C68.2481 118.001 67.1514 118.403 66.0176 118.405Z" fill="#3F3D56"/>
<path d="M37.3548 19.7095L21.6015 19.665C21.1792 19.6645 20.774 19.8315 20.4746 20.1293C20.1752 20.4271 20.0061 20.8314 20.0044 21.2537L19.9473 42.1135C19.9464 42.5353 20.113 42.9403 20.4105 43.2393C20.7079 43.5384 21.112 43.7072 21.5338 43.7085L30.2725 43.7339L37.2892 43.7529C37.7113 43.7537 38.1165 43.5868 38.4156 43.2889C38.7147 42.9909 38.8833 42.5864 38.8842 42.1643L38.8884 40.931L38.9434 21.3066C38.9443 20.8842 38.7774 20.4788 38.4796 20.1793C38.1817 19.8798 37.7771 19.7109 37.3548 19.7095Z" fill="#E6E6E6"/>
<path d="M36.244 20.9551L22.7055 20.917C22.3102 20.9165 21.9308 21.0727 21.6504 21.3515C21.3701 21.6303 21.2117 22.0088 21.21 22.4041L21.1719 35.8156C21.1692 37.5769 21.8653 39.2674 23.1073 40.5161C24.3494 41.7649 26.036 42.4701 27.7973 42.477L30.3696 42.4833L36.1848 42.5003C36.5802 42.5011 36.9598 42.345 37.2403 42.0662C37.5207 41.7873 37.679 41.4086 37.6803 41.0131L37.6846 39.6635L37.7311 22.4506C37.732 22.0552 37.5758 21.6756 37.297 21.3952C37.0182 21.1147 36.6394 20.9565 36.244 20.9551Z" fill="white"/>
<path d="M34.7225 30.1191H24.1668C24.0836 30.1191 24.0012 30.1355 23.9243 30.1674C23.8474 30.1992 23.7776 30.2459 23.7188 30.3047C23.6599 30.3635 23.6133 30.4334 23.5814 30.5102C23.5496 30.5871 23.5332 30.6695 23.5332 30.7527C23.5332 30.8359 23.5496 30.9183 23.5814 30.9952C23.6133 31.072 23.6599 31.1419 23.7188 31.2007C23.7776 31.2595 23.8474 31.3062 23.9243 31.338C24.0012 31.3699 24.0836 31.3863 24.1668 31.3863H34.7225C34.8906 31.3863 35.0517 31.3195 35.1705 31.2007C35.2893 31.0819 35.3561 30.9207 35.3561 30.7527C35.3561 30.5847 35.2893 30.4235 35.1705 30.3047C35.0517 30.1859 34.8906 30.1191 34.7225 30.1191Z" fill="#5197FF"/>
<path d="M26.4873 26.6455H24.1668C23.9987 26.6455 23.8376 26.7123 23.7188 26.8311C23.6 26.9499 23.5332 27.111 23.5332 27.2791C23.5332 27.4471 23.6 27.6082 23.7188 27.7271C23.8376 27.8459 23.9987 27.9126 24.1668 27.9126H26.4873C26.6554 27.9126 26.8165 27.8459 26.9353 27.7271C27.0541 27.6082 27.1209 27.4471 27.1209 27.2791C27.1209 27.111 27.0541 26.9499 26.9353 26.8311C26.8165 26.7123 26.6554 26.6455 26.4873 26.6455Z" fill="#5197FF"/>
<path d="M34.7225 35.6885H24.1668C23.9987 35.6885 23.8376 35.7552 23.7188 35.874C23.5999 35.9929 23.5332 36.154 23.5332 36.322C23.5332 36.4901 23.5999 36.6512 23.7188 36.77C23.8376 36.8888 23.9987 36.9556 24.1668 36.9556H34.7225C34.8906 36.9556 35.0517 36.8888 35.1705 36.77C35.2893 36.6512 35.3561 36.4901 35.3561 36.322C35.3561 36.154 35.2893 35.9929 35.1705 35.874C35.0517 35.7552 34.8906 35.6885 34.7225 35.6885Z" fill="#5197FF"/>
<path d="M34.7234 32.9053H24.1677C23.9999 32.9053 23.839 32.9719 23.7204 33.0905C23.6018 33.2091 23.5352 33.37 23.5352 33.5378C23.5352 33.7055 23.6018 33.8664 23.7204 33.985C23.839 34.1036 23.9999 34.1703 24.1677 34.1703H34.7234C34.8912 34.1703 35.0521 34.1036 35.1707 33.985C35.2893 33.8664 35.3559 33.7055 35.3559 33.5378C35.3559 33.37 35.2893 33.2091 35.1707 33.0905C35.0521 32.9719 34.8912 32.9053 34.7234 32.9053Z" fill="#5197FF"/>
<path d="M32.6715 28.886C31.9303 28.886 31.2057 28.6662 30.5894 28.2544C29.9731 27.8426 29.4928 27.2573 29.2091 26.5725C28.9255 25.8877 28.8512 25.1342 28.9958 24.4072C29.1404 23.6802 29.4974 23.0124 30.0215 22.4883C30.5456 21.9642 31.2134 21.6072 31.9404 21.4626C32.6674 21.318 33.4209 21.3922 34.1057 21.6759C34.7905 21.9596 35.3758 22.4399 35.7876 23.0562C36.1994 23.6725 36.4192 24.3971 36.4192 25.1383C36.4181 26.1319 36.0229 27.0845 35.3203 27.7871C34.6177 28.4897 33.6651 28.8849 32.6715 28.886ZM32.6715 21.6511C31.9818 21.6511 31.3076 21.8556 30.7341 22.2388C30.1606 22.622 29.7137 23.1666 29.4497 23.8038C29.1858 24.441 29.1167 25.1422 29.2513 25.8187C29.3858 26.4951 29.7179 27.1165 30.2056 27.6042C30.6933 28.0919 31.3147 28.424 31.9912 28.5586C32.6676 28.6931 33.3688 28.6241 34.006 28.3601C34.6432 28.0962 35.1879 27.6492 35.5711 27.0758C35.9543 26.5023 36.1588 25.828 36.1588 25.1383C36.1577 24.2138 35.79 23.3274 35.1362 22.6736C34.4825 22.0199 33.5961 21.6521 32.6715 21.6511Z" fill="#5197FF"/>
<path d="M34.2463 26.5896C33.9874 25.2532 33.4483 23.9867 32.6644 22.8737C32.6467 22.8449 32.6219 22.8211 32.5924 22.8045C32.5628 22.788 32.5296 22.7793 32.4957 22.7793C32.4619 22.7793 32.4286 22.788 32.3991 22.8045C32.3695 22.8211 32.3447 22.8449 32.3271 22.8737C31.6443 24.0679 31.2079 25.3868 31.0437 26.7524C31.0133 27.0014 31.4042 26.9992 31.4343 26.7524C31.4892 26.3099 31.5748 25.8716 31.6904 25.4409C31.7054 25.438 31.72 25.4335 31.7341 25.4275C32.2535 25.1667 32.8404 25.0712 33.4158 25.1537C33.4208 25.1544 33.4256 25.1534 33.4306 25.1538C33.6206 25.6536 33.7675 26.1687 33.8696 26.6935C33.9172 26.9401 34.2938 26.8357 34.2463 26.5896ZM31.831 24.9618C32.0104 24.4055 32.2386 23.8663 32.5132 23.3503C32.8038 23.7943 33.0562 24.2622 33.2675 24.7489C32.7788 24.7122 32.2881 24.7849 31.831 24.9618Z" fill="#5197FF"/>
</g>
<defs>
<clipPath id="clip0_81_2361">
<rect width="143" height="143" fill="white"/>
</clipPath>
</defs>
</svg>
